<?xml version="1.0" encoding="utf-8"?>
<!-- Svg Vector Icons : http://www.onlinewebfonts.com/icon -->
<!DOCTYPE svg PUBLIC "-//W3C//DTD SVG 1.1//EN" "http://www.w3.org/Graphics/SVG/1.1/DTD/svg11.dtd">
<svg version="1.1" xmlns="http://www.w3.org/2000/svg" xmlns:xlink="http://www.w3.org/1999/xlink" x="0px" y="0px" viewBox="0 0 256 256" enable-background="new 0 0 256 256" xml:space="preserve">
<metadata> Svg Vector Icons : http://www.onlinewebfonts.com/icon </metadata>
<g><g><path fill="#000000" d="M128,217.4c4.1,0,7.3-3.3,7.3-7.4V73.3c0-4.1-3.3-7.4-7.3-7.4c-4.1,0-7.4,3.3-7.4,7.4V210C120.6,214.1,123.9,217.4,128,217.4z M163.8,217.4l0.4,0c3.9,0,7.1-3,7.3-7l7.8-136.7c0.2-4-2.9-7.6-7-7.8c-4-0.2-7.5,2.9-7.8,6.9l-7.8,136.7C156.7,213.7,159.7,217.2,163.8,217.4z M91.5,217.4l0.4,0c4.1-0.2,7.2-3.7,7-7.8L91.1,72.9c-0.2-4-3.8-7.1-7.8-6.9c-4.1,0.2-7.2,3.7-7,7.8l7.8,136.7C84.3,214.4,87.6,217.4,91.5,217.4z M201,51.4l-10,179.8H65.2L55,51.4H201L201,51.4z M93.5,24.8h69.1l3.6,11.9H89.9L93.5,24.8z M17.3,51.4h22.9L50.9,239c0.2,3.9,3.5,7,7.3,7h139.6c3.9,0,7.2-3.1,7.3-7l10.5-187.6h22.9c4.1,0,7.4-3.3,7.4-7.3c0-4.1-3.3-7.4-7.4-7.4h-57.7l-3.6-19.3c0-4.1-3.3-7.4-7.4-7.4H86.1c-4.1,0-7.4,3.3-7.4,7.4l-3.6,19.3H17.4c-4.1,0-7.4,3.3-7.4,7.4C10,48.1,13.3,51.4,17.3,51.4z"/></g></g>
</svg>